# xmcd
#
# Track frame offsets: 
#        150
#        16805
#        33242
#        52262
#        71415
#        87217
#        103485
#        117912
#        136775
#        150152
#        167130
#        181537
#        209370
#
# Disc length: 2968 seconds
#
# Revision: 4
# Processed by: cddbd v1.4PL0 Copyright (c) Steve Scherf et al.
# Submitted via: ExactAudioCopy v0.90b3
#
DISCID=a20b960d
DTITLE=Andy Griggs - Freedom
DYEAR=2002
DGENRE=Country
TTITLE0=Freedom
TTITLE1=The Road To Lasting Love
TTITLE2=Practice Life (With Martina McBride)
TTITLE3=Always
TTITLE4=Custom Made
TTITLE5=A Hundred Miles Of Bad Road (With Tom Keifer)
TTITLE6=How Cool Is That
TTITLE7=I've Learned
TTITLE8=Tonight I Wanna Be Your Man
TTITLE9=Sweetheart Of Beinja Bayou
TTITLE10=Brand New Something Going On
TTITLE11=Where's A Train
TTITLE12=Someone Like Me
EXTD=YEAR: 2002 ID3G: 2
EXTT0=
EXTT1=
EXTT2=
EXTT3=
EXTT4=
EXTT5=
EXTT6=
EXTT7=
EXTT8=
EXTT9=
EXTT10=
EXTT11=
EXTT12=
PLAYORDER=
